<svg width="48" height="48" viewBox="0 0 48 48" fill="none" xmlns="http://www.w3.org/2000/svg">
<path opacity="0.4" d="M44.9 37.9996H3.1C2.49208 37.9996 2 38.447 2 38.9996C2 39.5523 2.49208 39.9996 3.1 39.9996H44.9C45.5079 39.9996 46 39.5523 46 38.9996C46 38.447 45.5079 37.9996 44.9 37.9996Z" fill="#26B5C6"/>
<path d="M41.7778 8H6.22222C4.99479 8 4 9.04453 4 10.3333V33.6667C4 34.9555 4.99479 36 6.22222 36H41.7778C43.0052 36 44 34.9555 44 33.6667V10.3333C44 9.04453 43.0052 8 41.7778 8ZM41.7778 33.6667H6.22222V10.3333H41.7778V33.6667Z" fill="#26B5C6"/>
<path d="M37.4457 24.5212C37.3705 24.5462 37.2905 24.5529 37.2122 24.5406C37.1602 24.5406 37.0521 24.506 37.0413 24.5039C36.5114 24.3763 36.1286 24.3071 35.5923 24.2033C35.0559 24.0994 34.4828 24 33.9248 23.9113C32.811 23.7318 31.6928 23.5847 30.5725 23.4614C28.3298 23.217 26.0762 23.0289 23.8248 22.9878C22.6958 22.964 21.5712 22.9727 20.4422 22.9878C19.3133 23.0029 18.1865 23.0246 17.0597 23.0635C15.9329 23.1024 14.8083 23.1024 13.6858 23.1738C13.1235 23.2084 12.5634 23.2495 11.9989 23.2949C11.7177 23.3144 11.4366 23.3446 11.1338 23.3403C10.8185 23.3429 10.5047 23.2962 10.2038 23.2019C10.1666 23.1895 10.1322 23.1698 10.1025 23.144C10.0729 23.1182 10.0487 23.0869 10.0312 23.0517C10.0137 23.0166 10.0034 22.9783 10.0007 22.9391C9.99802 22.8999 10.0031 22.8606 10.0157 22.8234C10.0413 22.7481 10.0957 22.6859 10.1671 22.6507C10.2384 22.6154 10.3209 22.6098 10.3963 22.6353C10.6347 22.7162 10.8842 22.76 11.136 22.765C11.3912 22.765 11.6723 22.765 11.9535 22.7391C12.518 22.7066 13.0846 22.6785 13.6491 22.6547C14.7802 22.6093 15.9113 22.5877 17.0424 22.5747C18.1735 22.5617 19.3025 22.5747 20.4336 22.5747C21.5647 22.5747 22.6937 22.6007 23.8248 22.6504C26.0899 22.7441 28.3449 22.9352 30.5898 23.2235C31.7101 23.3677 32.8261 23.5422 33.9378 23.7469C34.4936 23.8486 35.0472 23.9632 35.5987 24.0757C36.1502 24.1881 36.9007 24.3806 37.4457 24.5212Z" fill="#26B5C6"/>
<path d="M27.8497 21.9886C27.5793 21.8264 27.3068 21.6707 27.0343 21.515L26.6234 21.2771L26.2082 21.0608C25.9313 20.9116 25.6545 20.7624 25.369 20.6283C25.2976 20.5937 25.2263 20.5591 25.1527 20.5266L25.0424 20.4747L24.9235 20.412C24.8813 20.3939 24.838 20.3788 24.7937 20.3666L24.6705 20.3341C24.5883 20.3147 24.5082 20.2995 24.4282 20.2844C24.1125 20.2238 23.7967 20.1806 23.4809 20.1438C22.8523 20.0732 22.2208 20.0278 21.5864 20.0076C21.2692 19.9975 20.9513 19.9975 20.6326 20.0076C20.3125 20.0076 19.9838 20.0292 19.6724 20.0595C19.3423 20.0863 19.0152 20.1421 18.6948 20.226C18.6104 20.2476 18.5369 20.2736 18.4612 20.2974L18.232 20.3731C18.0827 20.4228 17.9313 20.4769 17.7843 20.531C17.1895 20.7472 16.6056 20.983 16.0238 21.223C15.442 21.4631 14.8667 21.7161 14.2936 21.9757L13.2577 22.445L15.5502 22.3001C15.9416 22.2784 16.3331 22.2503 16.7224 22.2201H16.7721L17.1895 22.0038L17.6048 21.7724C17.8838 21.6188 18.1584 21.4631 18.4331 21.3031C18.1368 21.4155 17.8405 21.5323 17.5485 21.6513L16.7051 22.0016C16.3201 22.0016 15.9351 21.9886 15.5502 21.9886H15.4939L16.2185 21.7183C16.8046 21.502 17.3907 21.2858 17.9789 21.0868L18.4115 20.9419C18.485 20.9159 18.5564 20.8943 18.6278 20.8727C18.6991 20.851 18.777 20.8251 18.844 20.8099C18.9111 20.7948 18.9846 20.7775 19.0603 20.7624C19.136 20.7472 19.2052 20.7364 19.2766 20.7278C19.4258 20.704 19.575 20.6888 19.7264 20.6737C20.3342 20.6218 20.9527 20.6131 21.5734 20.6196C22.1941 20.6261 22.8148 20.6542 23.4334 20.6975C23.7405 20.7213 24.0497 20.7472 24.3525 20.784C24.4986 20.7989 24.6433 20.8257 24.7851 20.864L24.8889 20.8986L24.9949 20.9375L25.2111 21.0241C25.7864 21.2533 26.3574 21.515 26.9413 21.7616C27.229 21.887 27.5166 22.0124 27.8064 22.1335C28.0962 22.2547 28.3839 22.3801 28.6715 22.5012C28.3839 22.3109 28.12 22.1422 27.8497 21.9886Z" fill="#26B5C6"/>
<path d="M24.0886 24.5211C24.0556 24.5005 24.0199 24.4845 23.9826 24.4735L23.8226 24.4281C23.7101 24.4021 23.5912 24.3784 23.4722 24.3589C23.2343 24.3178 22.9921 24.2875 22.7477 24.2594C22.2589 24.2053 21.768 24.1664 21.2749 24.1318C20.2887 24.0669 19.2981 24.0258 18.3098 24.0042C17.8145 24.0042 17.3192 23.9934 16.824 23.9891L12.3622 23.9566L18.3098 23.7858C19.3017 23.7641 20.2952 23.7641 21.29 23.7858C21.7875 23.7987 22.2849 23.8182 22.7845 23.8528C23.0354 23.8701 23.2841 23.8917 23.5371 23.9242C23.6626 23.9415 23.7902 23.9588 23.9199 23.9847C23.9848 23.9977 24.0497 24.0129 24.1189 24.0323C24.2014 24.0542 24.2802 24.0885 24.3525 24.134H24.3676C24.4201 24.1672 24.4572 24.22 24.4708 24.2806C24.4844 24.3413 24.4733 24.4048 24.4401 24.4573C24.4068 24.5098 24.354 24.5469 24.2934 24.5605C24.2328 24.5741 24.1692 24.563 24.1167 24.5297L24.0886 24.5211Z" fill="#26B5C6"/>
<path d="M37.5452 25.0121C37.5452 25.0121 38.0664 25.981 37.9929 26.1302C37.9194 26.2795 35.6874 24.5968 35.6874 24.5968L37.5452 25.0121Z" fill="#26B5C6"/>
</svg>
