<svg width="81" height="82" viewBox="0 0 81 82" fill="none" xmlns="http://www.w3.org/2000/svg">
<path opacity="0.4" d="M70.9051 30.735C70.5676 27.0225 69.5776 23.0625 62.3551 23.0625H33.6451C26.4226 23.0625 25.4551 27.0225 25.0951 30.735L23.8351 44.4375C23.6776 46.1475 24.2401 47.8575 25.4101 49.14C26.6026 50.445 28.2901 51.1875 30.0901 51.1875H34.3201C37.9651 51.1875 38.6626 49.095 39.1126 47.7225L39.5626 46.3725C40.0801 44.82 40.2151 44.4375 42.2401 44.4375H53.7601C55.7851 44.4375 55.8526 44.6625 56.4376 46.3725L56.8876 47.7225C57.3376 49.095 58.0351 51.1875 61.6801 51.1875H65.9101C67.6876 51.1875 69.3976 50.445 70.5901 49.14C71.7601 47.8575 72.3226 46.1475 72.1651 44.4375L70.9051 30.735Z" fill="#26B5C6"/>
<path d="M68.25 16.3125H66C65.9775 16.3125 65.9775 16.3125 65.955 16.3125L65.1 12.24C64.29 8.30249 62.6025 4.67999 55.8975 4.67999H49.6875H46.3125H40.1025C33.3975 4.67999 31.71 8.30249 30.9 12.24L30.045 16.3125C30.0225 16.3125 30.0225 16.3125 30 16.3125H27.75C26.8275 16.3125 26.0625 17.0775 26.0625 18C26.0625 18.9225 26.8275 19.6875 27.75 19.6875H29.3475L28.4025 24.1875C29.6175 23.49 31.305 23.0625 33.645 23.0625H62.355C64.695 23.0625 66.3825 23.49 67.5975 24.1875L66.6525 19.6875H68.25C69.1725 19.6875 69.9375 18.9225 69.9375 18C69.9375 17.0775 69.1725 16.3125 68.25 16.3125Z" fill="#26B5C6"/>
<path d="M41.25 35.4375H34.5C33.5775 35.4375 32.8125 34.6725 32.8125 33.75C32.8125 32.8275 33.5775 32.0625 34.5 32.0625H41.25C42.1725 32.0625 42.9375 32.8275 42.9375 33.75C42.9375 34.6725 42.1725 35.4375 41.25 35.4375Z" fill="#26B5C6"/>
<path d="M61.5 35.4375H54.75C53.8275 35.4375 53.0625 34.6725 53.0625 33.75C53.0625 32.8275 53.8275 32.0625 54.75 32.0625H61.5C62.4225 32.0625 63.1875 32.8275 63.1875 33.75C63.1875 34.6725 62.4225 35.4375 61.5 35.4375Z" fill="#26B5C6"/>
<g filter="url(#filter0_f_1_615)">
<circle cx="40.5" cy="41.5" r="9.5" fill="#26B5C6"/>
</g>
<defs>
<filter id="filter0_f_1_615" x="0" y="1" width="81" height="81" filterUnits="userSpaceOnUse" color-interpolation-filters="sRGB">
<feFlood flood-opacity="0" result="BackgroundImageFix"/>
<feBlend mode="normal" in="SourceGraphic" in2="BackgroundImageFix" result="shape"/>
<feGaussianBlur stdDeviation="15.5" result="effect1_foregroundBlur_1_615"/>
</filter>
</defs>
</svg>
