<svg width="25" height="24" viewBox="0 0 25 24" fill="none" xmlns="http://www.w3.org/2000/svg">
<path d="M12.5234 2.16267C15.7274 2.16267 16.1069 2.17467 17.3726 2.23238C18.1336 2.24169 18.8874 2.38143 19.6012 2.64551C20.1188 2.84512 20.5889 3.15091 20.9812 3.54318C21.3734 3.93545 21.6792 4.40551 21.8789 4.92311C22.143 5.63686 22.2827 6.3906 22.292 7.15158C22.3492 8.41723 22.3617 8.79664 22.3617 12.0005C22.3617 15.2043 22.3497 15.5837 22.292 16.8494C22.2827 17.6104 22.143 18.3641 21.8789 19.0779C21.6792 19.5955 21.3734 20.0655 20.9812 20.4578C20.5889 20.8501 20.1188 21.1559 19.6012 21.3555C18.8874 21.6196 18.1336 21.7593 17.3726 21.7686C16.1074 21.8257 15.728 21.8383 12.5234 21.8383C9.31887 21.8383 8.93944 21.8263 7.67429 21.7686C6.91328 21.7593 6.1595 21.6196 5.44572 21.3555C4.9281 21.1559 4.45801 20.8501 4.06572 20.4578C3.67343 20.0655 3.36763 19.5955 3.16801 19.0779C2.90392 18.3641 2.76418 17.6104 2.75487 16.8494C2.69772 15.5837 2.68515 15.2043 2.68515 12.0005C2.68515 8.79664 2.69715 8.41723 2.75487 7.15158C2.76418 6.3906 2.90392 5.63686 3.16801 4.92311C3.36763 4.40551 3.67343 3.93545 4.06572 3.54318C4.45801 3.15091 4.9281 2.84512 5.44572 2.64551C6.1595 2.38143 6.91328 2.24169 7.67429 2.23238C8.94001 2.17524 9.31944 2.16267 12.5234 2.16267ZM12.5234 0.000488281C9.2663 0.000488281 8.85601 0.0142019 7.57601 0.0724848C6.58004 0.0922941 5.59464 0.280864 4.66172 0.630173C3.86143 0.931682 3.13658 1.40417 2.53772 2.01468C1.92664 2.61372 1.45372 3.33896 1.15201 4.13972C0.802683 5.07259 0.614105 6.05794 0.594295 7.05387C0.537152 8.33266 0.523438 8.74293 0.523438 11.9999C0.523438 15.2569 0.537152 15.6672 0.595437 16.9471C0.615248 17.943 0.803826 18.9284 1.15315 19.8613C1.45453 20.6619 1.92705 21.3871 2.53772 21.9863C3.13691 22.5969 3.86217 23.0694 4.66287 23.3708C5.59578 23.7201 6.58118 23.9087 7.57715 23.9285C8.85715 23.9856 9.26572 24.0005 12.5246 24.0005C15.7834 24.0005 16.192 23.9868 17.472 23.9285C18.468 23.9087 19.4534 23.7201 20.3863 23.3708C21.1832 23.0619 21.9069 22.5901 22.511 21.9856C23.1152 21.3811 23.5865 20.6572 23.8949 19.8601C24.2442 18.9272 24.4328 17.9419 24.4526 16.946C24.5097 15.6672 24.5234 15.2569 24.5234 11.9999C24.5234 8.74293 24.5097 8.33266 24.4514 7.05272C24.4316 6.0568 24.243 5.07144 23.8937 4.13858C23.5923 3.33792 23.1198 2.61269 22.5092 2.01354C21.91 1.40289 21.1847 0.930391 20.384 0.62903C19.4511 0.279721 18.4657 0.0911514 17.4697 0.0713421C16.1909 0.014202 15.7806 0.000488281 12.5234 0.000488281Z" fill="#081F29"/>
<path d="M12.5207 5.83887C11.3019 5.83887 10.1105 6.20026 9.0971 6.87735C8.08372 7.55444 7.29389 8.51681 6.82748 9.64277C6.36107 10.7687 6.23903 12.0077 6.47681 13.203C6.71458 14.3983 7.30148 15.4963 8.16329 16.358C9.0251 17.2198 10.1231 17.8067 11.3185 18.0445C12.5139 18.2822 13.7529 18.1602 14.8789 17.6938C16.0049 17.2274 16.9673 16.4376 17.6444 15.4243C18.3216 14.4109 18.683 13.2196 18.683 12.0009C18.683 10.3666 18.0337 8.79927 16.8781 7.64367C15.7224 6.48808 14.155 5.83887 12.5207 5.83887ZM12.5207 16.0007C11.7296 16.0007 10.9562 15.7661 10.2984 15.3266C9.64061 14.8871 9.12792 14.2624 8.82517 13.5315C8.52242 12.8007 8.4432 11.9964 8.59755 11.2205C8.75189 10.4446 9.13285 9.73195 9.69226 9.17257C10.2517 8.61318 10.9644 8.23224 11.7403 8.07791C12.5162 7.92357 13.3205 8.00278 14.0514 8.30552C14.7823 8.60825 15.407 9.12092 15.8466 9.77868C16.2861 10.4365 16.5207 11.2098 16.5207 12.0009C16.5207 13.0617 16.0993 14.079 15.3491 14.8292C14.599 15.5793 13.5816 16.0007 12.5207 16.0007Z" fill="#081F29"/>
<path d="M18.9283 7.03416C19.7236 7.03416 20.3683 6.38948 20.3683 5.59423C20.3683 4.79898 19.7236 4.1543 18.9283 4.1543C18.133 4.1543 17.4883 4.79898 17.4883 5.59423C17.4883 6.38948 18.133 7.03416 18.9283 7.03416Z" fill="#081F29"/>
</svg>
