<svg width="82" height="48" viewBox="0 0 82 48" fill="none" xmlns="http://www.w3.org/2000/svg">
<path d="M26.5927 41.5728C30.658 45.0022 35.7614 46.9596 41.0773 47.1284C43.7534 47.2233 46.4264 46.8672 48.9843 46.075C51.5654 45.2772 53.9944 44.0521 56.1702 42.4507C52.9619 45.0586 49.1518 46.822 45.0873 47.5799C41.0229 48.3378 36.8333 48.0662 32.9007 46.7898C30.2388 45.9224 27.7402 44.6169 25.5079 42.9272C25.3454 42.7813 25.2437 42.5797 25.2228 42.3623C25.2018 42.1449 25.2633 41.9276 25.395 41.7533C25.5266 41.5791 25.7189 41.4607 25.9337 41.4214C26.1486 41.3822 26.3703 41.425 26.555 41.5414L26.5927 41.5728Z" fill="#26B5C6"/>
<path d="M79.5711 24.4545C79.3531 24.527 79.1209 24.5464 78.8939 24.511C78.7434 24.511 78.4299 24.4106 78.3985 24.4044C76.8623 24.0344 75.7524 23.8338 74.1973 23.5328C72.6423 23.2318 70.9806 22.9434 69.3629 22.6863C66.1336 22.1658 62.8918 21.7394 59.6437 21.382C53.1413 20.6735 46.6075 20.1279 40.08 20.0088C36.8069 19.9398 33.5463 19.9649 30.2731 20.0088C27 20.0527 23.7331 20.1154 20.4662 20.2283C17.1993 20.3411 13.9387 20.3411 10.6844 20.5481C9.05405 20.6484 7.43001 20.7675 5.79343 20.8992C4.97828 20.9556 4.16312 21.0434 3.28527 21.0309C2.37109 21.0383 1.46137 20.9029 0.58899 20.6296C0.481027 20.5935 0.381246 20.5364 0.295366 20.4617C0.209486 20.387 0.139194 20.2961 0.0885173 20.1941C0.0378407 20.0922 0.00777564 19.9812 4.46814e-05 19.8677C-0.00768628 19.7541 0.00706884 19.6401 0.0434646 19.5323C0.117715 19.3137 0.275595 19.1336 0.482479 19.0313C0.689363 18.9291 0.928362 18.913 1.14706 18.9867C1.83833 19.2215 2.56164 19.3484 3.29154 19.363C4.03145 19.363 4.8466 19.363 5.66175 19.2877C7.29833 19.1936 8.94118 19.1121 10.5778 19.0432C13.8572 18.9115 17.1366 18.8488 20.416 18.8112C23.6955 18.7735 26.9686 18.8112 30.248 18.8112C33.5275 18.8112 36.8006 18.8864 40.08 19.0306C46.6472 19.3023 53.1852 19.8562 59.6939 20.6923C62.942 21.1103 66.1775 21.6161 69.4005 22.2097C71.012 22.5044 72.6172 22.8368 74.2162 23.1628C75.8151 23.4889 77.9909 24.0469 79.5711 24.4545Z" fill="#081F29"/>
<path d="M51.7489 17.1121C50.965 16.6418 50.175 16.1903 49.3849 15.7389L48.1935 15.0491L46.9896 14.4221C46.187 13.9894 45.3844 13.5568 44.5567 13.168C44.3498 13.0677 44.1428 12.9673 43.9296 12.8733L43.6099 12.7228L43.265 12.5409C43.1427 12.4886 43.017 12.4446 42.8888 12.4093L42.5313 12.3152C42.2931 12.2588 42.0611 12.2149 41.8291 12.171C40.9136 11.9954 39.9981 11.87 39.0826 11.7634C37.26 11.5586 35.4291 11.4269 33.5897 11.3684C32.6701 11.3391 31.7483 11.3391 30.8245 11.3684C29.8965 11.3684 28.9434 11.4311 28.0404 11.5189C27.0834 11.5968 26.135 11.7583 25.2062 12.0017C24.9617 12.0644 24.7485 12.1396 24.529 12.2086L23.8643 12.4281C23.4317 12.5723 22.9927 12.7291 22.5664 12.8858C20.842 13.5129 19.149 14.1963 17.4622 14.8924C15.7755 15.5884 14.1076 16.322 12.4459 17.0745L9.44238 18.4351L12.6967 18.2282L16.089 18.015C17.224 17.9523 18.3589 17.8708 19.4876 17.783H19.5816H19.6318L20.842 17.156L22.0459 16.485C22.8548 16.0398 23.6511 15.5884 24.4475 15.1244C23.5884 15.4504 22.7294 15.789 21.8829 16.1339L20.6288 16.6543L19.4374 17.1497C18.3213 17.1497 17.2052 17.1121 16.089 17.1121H15.926L18.0266 16.3283C19.7259 15.7012 21.4251 15.0742 23.1307 14.4973L24.3848 14.0772C24.598 14.002 24.8049 13.9393 25.0118 13.8765C25.2187 13.8138 25.4445 13.7386 25.6389 13.6947C25.8332 13.6508 26.0464 13.6006 26.2659 13.5568C26.4854 13.5129 26.686 13.4815 26.8929 13.4564C27.3256 13.3875 27.7583 13.3436 28.1972 13.2997C29.9592 13.1492 31.7525 13.1241 33.5521 13.1429C35.3517 13.1617 37.1513 13.2432 38.9447 13.3686C39.8351 13.4376 40.7317 13.5129 41.6096 13.6195C42.0332 13.6627 42.4526 13.7403 42.8637 13.8515L43.1647 13.9518L43.4719 14.0647L44.0989 14.3155C45.7669 14.9801 47.4223 15.7389 49.1153 16.4537C49.9492 16.8174 50.7832 17.1811 51.6234 17.5322C52.4637 17.8833 53.2976 18.247 54.1316 18.5982C53.2976 18.0464 52.5327 17.5573 51.7489 17.1121Z" fill="#081F29"/>
<path d="M40.8448 24.4546C40.7491 24.395 40.6458 24.3486 40.5376 24.3167L40.0736 24.185C39.7475 24.1097 39.4027 24.0408 39.0578 23.9843C38.368 23.8652 37.6657 23.7774 36.9572 23.6959C35.5401 23.5391 34.1167 23.4263 32.687 23.3259C29.8277 23.1378 26.9559 23.0187 24.0903 22.956C22.6544 22.956 21.2185 22.9246 19.7825 22.9121L15.4685 22.8807L6.84668 22.818L24.0903 22.3227C26.9663 22.26 29.8465 22.26 32.7309 22.3227C34.1731 22.3603 35.6153 22.4167 37.0638 22.517C37.7912 22.5672 38.5123 22.6299 39.2459 22.724C39.6096 22.7741 39.9795 22.8243 40.3558 22.8995C40.5439 22.9372 40.732 22.9811 40.9326 23.0375C41.1719 23.1011 41.4002 23.2004 41.6098 23.3322H41.6537C41.8059 23.4287 41.9135 23.5816 41.9529 23.7574C41.9923 23.9332 41.9602 24.1175 41.8638 24.2696C41.7673 24.4218 41.6144 24.5294 41.4386 24.5688C41.2628 24.6082 41.0785 24.5761 40.9264 24.4797L40.8448 24.4546Z" fill="#081F29"/>
<path d="M79.8599 25.8777C79.8599 25.8777 81.3711 28.6869 81.1579 29.1195C80.9447 29.5522 74.4736 24.6738 74.4736 24.6738L79.8599 25.8777Z" fill="#081F29"/>
<path d="M4.16303 22.8179H0.708036C0.5867 23.1306 0.543461 23.4682 0.582066 23.8015C0.620672 24.1347 0.739957 24.4535 0.929584 24.7302C1.11921 25.0069 1.37346 25.2332 1.67029 25.3895C1.96713 25.5458 2.29759 25.6273 2.63305 25.627H2.771L4.16303 22.8179Z" fill="#081F29"/>
<path d="M7.26731 33.2331C6.87288 33.0837 6.46573 32.9704 6.05085 32.8945H6.00069H5.93172H5.83766C5.48847 32.8298 5.14308 32.7461 4.80304 32.6436C4.57041 32.5781 4.35589 32.4602 4.176 32.2988C4.09566 32.2165 4.03392 32.118 3.99498 32.0098C3.95603 31.9016 3.94078 31.7863 3.95027 31.6717C3.93923 31.4735 3.97689 31.2755 4.05996 31.0952C4.14303 30.9148 4.26898 30.7576 4.42682 30.6371C4.83874 30.3668 5.32707 30.237 5.81885 30.2672C6.12717 30.2669 6.43302 30.3221 6.72179 30.4302C7.05819 30.5575 7.3765 30.7282 7.66862 30.9381L7.74387 30.9882L8.3082 30.2421L8.25177 30.0978C8.00687 29.9222 7.74664 29.769 7.47424 29.6401C7.21439 29.5232 6.94338 29.4329 6.66535 29.3705C6.39602 29.308 6.12043 29.2764 5.84393 29.2764C5.3287 29.2643 4.81647 29.3583 4.33903 29.5523C3.93948 29.7123 3.59974 29.9928 3.36712 30.3549C3.13966 30.733 3.0244 31.1679 3.03479 31.609C3.01126 32.0279 3.138 32.4415 3.3922 32.7753C3.62367 33.0475 3.92503 33.2513 4.26379 33.3647C4.68859 33.5026 5.12224 33.6115 5.56176 33.6908H5.71225H5.76242V33.5967V33.6971C6.08076 33.7561 6.39494 33.8357 6.70298 33.9353C6.92167 34.0079 7.11812 34.1352 7.27358 34.3053C7.41658 34.4822 7.49015 34.7051 7.48051 34.9323C7.48952 35.1302 7.44823 35.3272 7.36051 35.5048C7.27279 35.6825 7.14149 35.835 6.97888 35.9481C6.53953 36.2196 6.02711 36.3488 5.5116 36.3181C5.0956 36.3209 4.68215 36.2531 4.28887 36.1174C3.91076 35.9728 3.56225 35.7603 3.26052 35.4904L3.18528 35.4214L2.6084 36.1739L2.67737 36.2366C2.92975 36.447 3.20534 36.628 3.4988 36.7758C3.79985 36.9215 4.11793 37.0289 4.44563 37.0956L4.94099 37.2022H5.5116C6.04255 37.2142 6.57074 37.1226 7.06666 36.9326C7.47631 36.776 7.82847 36.4982 8.0762 36.1363C8.31205 35.7613 8.43201 35.325 8.42107 34.8822C8.42172 34.5177 8.31246 34.1615 8.10755 33.8601C7.88757 33.5807 7.59772 33.3644 7.26731 33.2331Z" fill="#081F29"/>
<path d="M18.7607 29.377H17.8076V37.2212H18.7607V29.377Z" fill="#081F29"/>
<path d="M29.5459 29.3767H28.5928V37.221H33.7032V36.3243H29.5459V29.3767Z" fill="#081F29"/>
<path d="M43.8613 29.3767H42.9082V37.221H43.8613V29.3767Z" fill="#081F29"/>
<path d="M57.0418 34.7632L54.6465 29.377H53.6934V37.2212H54.6402V31.6092L56.7094 36.1553H57.3741L59.4371 31.5214V37.2212H60.3902V29.377H59.4371L57.0418 34.7632Z" fill="#081F29"/>
<path d="M75.1572 30.6435C74.9456 30.2202 74.6113 29.8705 74.1978 29.6403C73.7297 29.4133 73.2162 29.2954 72.696 29.2954C72.1758 29.2954 71.6624 29.4133 71.1943 29.6403C70.7796 29.8689 70.4448 30.219 70.2349 30.6435C70.004 31.1352 69.8923 31.6744 69.9088 32.2174V34.3807C69.893 34.9236 70.0047 35.4626 70.2349 35.9546C70.4448 36.3791 70.7796 36.7291 71.1943 36.9578C71.6624 37.1848 72.1758 37.3027 72.696 37.3027C73.2162 37.3027 73.7297 37.1848 74.1978 36.9578C74.6113 36.7276 74.9456 36.3779 75.1572 35.9546C75.3846 35.4617 75.4961 34.9233 75.4832 34.3807V32.2174C75.4968 31.6747 75.3852 31.1362 75.1572 30.6435ZM72.6929 36.3998C72.346 36.4108 72.0023 36.3308 71.6959 36.1678C71.4236 36.0159 71.2046 35.7838 71.0689 35.5031C70.9163 35.1624 70.8434 34.7914 70.8557 34.4183V32.1798C70.8434 31.8067 70.9163 31.4357 71.0689 31.095C71.2046 30.8143 71.4236 30.5822 71.6959 30.4303C72.0061 30.2776 72.3472 30.1982 72.6929 30.1982C73.0386 30.1982 73.3797 30.2776 73.6899 30.4303C73.9635 30.5805 74.1829 30.8131 74.3169 31.095C74.4716 31.4352 74.5467 31.8062 74.5364 32.1798V34.4183C74.5449 34.7917 74.4699 35.1623 74.3169 35.5031C74.1829 35.785 73.9635 36.0175 73.6899 36.1678C73.3838 36.3316 73.0399 36.4117 72.6929 36.3998Z" fill="#081F29"/>
<path d="M61.0356 10.3085L62.7725 6.7908L60.0386 9.29897L59.4115 8.67193C59.0729 8.27062 58.7281 7.88185 58.3644 7.50563L58.7343 6.05716L58.0132 7.13568C56.7668 5.88189 55.3875 4.76755 53.8998 3.81236C50.5007 1.62734 46.6077 0.330254 42.5773 0.0399448C38.5469 -0.250364 34.5081 0.475385 30.831 2.1507C27.2138 3.81794 24.0662 6.3558 21.6699 9.53724C24.1544 6.46984 27.3599 4.06564 31.0003 2.53946C34.6158 1.0458 38.5482 0.483098 42.4375 0.902887C47.9749 1.48627 53.1116 4.06239 56.8908 8.15148L55.6806 8.77852L57.2294 8.48381C57.5304 8.82242 57.8188 9.16729 58.101 9.51843L58.4333 10.1455L54.6711 11.2867L59.1482 11.4936C59.4115 12.0141 59.6373 12.4593 59.8254 12.779C60.5716 14.0958 62.4276 14.4344 62.4276 14.4344C62.5356 13.4374 62.3867 12.4293 61.9949 11.5062C61.7254 11.0692 61.4032 10.6669 61.0356 10.3085Z" fill="#26B5C6"/>
</svg>
