<svg width="95" height="56" viewBox="0 0 95 56" fill="none" xmlns="http://www.w3.org/2000/svg">
<g clip-path="url(#clip0_1_572)">
<path d="M31.0248 48.5018C35.7676 52.5027 41.7217 54.7864 47.9235 54.9833C51.0456 55.094 54.1641 54.6786 57.1484 53.7543C60.1597 52.8236 62.9935 51.3943 65.5319 49.5259C61.7889 52.5686 57.3438 54.6258 52.6019 55.51C47.86 56.3943 42.9722 56.0774 38.3842 54.5882C35.2785 53.5763 32.3635 52.0533 29.7592 50.0819V50.0819C29.5697 49.9116 29.4509 49.6764 29.4265 49.4228C29.4022 49.1692 29.4739 48.9157 29.6275 48.7124C29.7811 48.5091 30.0054 48.3709 30.256 48.3251C30.5066 48.2794 30.7653 48.3293 30.9809 48.4652L31.0248 48.5018Z" fill="#26B5C6"/>
<path d="M92.8333 28.5304C92.5789 28.615 92.308 28.6376 92.0432 28.5963C91.8676 28.5963 91.5018 28.4792 91.4653 28.4719C89.673 28.0403 88.3781 27.8062 86.5639 27.4551C84.7497 27.1039 82.8111 26.7674 80.9237 26.4675C77.1562 25.8603 73.3741 25.3628 69.5847 24.9459C61.9985 24.1192 54.3758 23.4828 46.7604 23.3438C42.9417 23.2633 39.1376 23.2926 35.319 23.3438C31.5003 23.395 27.6889 23.4681 23.8775 23.5998C20.0662 23.7315 16.2621 23.7315 12.4654 23.9729C10.5634 24.0899 8.66867 24.2289 6.75933 24.3826C5.80832 24.4484 4.8573 24.5508 3.83314 24.5362C2.7666 24.5449 1.70526 24.3869 0.687481 24.068C0.561524 24.0259 0.445113 23.9593 0.34492 23.8722C0.244726 23.785 0.162718 23.6789 0.103596 23.56C0.044473 23.441 0.0093971 23.3116 0.000377649 23.1791C-0.0086418 23.0466 0.0085725 22.9136 0.0510343 22.7878C0.137659 22.5329 0.321853 22.3227 0.563218 22.2034C0.804583 22.0841 1.08341 22.0654 1.33856 22.1513V22.1513C2.14505 22.4252 2.9889 22.5733 3.84045 22.5903C4.70368 22.5903 5.65469 22.5903 6.6057 22.5025C8.51504 22.3928 10.4317 22.2977 12.341 22.2172C16.167 22.0636 19.993 21.9904 23.819 21.9465C27.645 21.9026 31.4637 21.9465 35.2897 21.9465C39.1157 21.9465 42.9344 22.0343 46.7604 22.2026C54.4221 22.5196 62.0497 23.1658 69.6432 24.1412C73.4326 24.6289 77.2074 25.219 80.9676 25.9115C82.8476 26.2553 84.7204 26.643 86.5858 27.0235C88.4513 27.4039 90.9898 28.0549 92.8333 28.5304Z" fill="#F9F9FA"/>
<path d="M60.3741 19.9641C59.4597 19.4155 58.538 18.8888 57.6162 18.362L56.2263 17.5573L54.8217 16.8258C53.8853 16.321 52.9489 15.8163 51.9833 15.3627C51.7419 15.2456 51.5005 15.1286 51.2517 15.0189L50.8787 14.8433L50.4763 14.6311C50.3336 14.5701 50.187 14.5187 50.0374 14.4775L49.6204 14.3678C49.3424 14.302 49.0717 14.2507 48.8011 14.1995C47.733 13.9947 46.6649 13.8484 45.5969 13.724C43.4705 13.4851 41.3344 13.3314 39.1885 13.2632C38.1156 13.229 37.0402 13.229 35.9624 13.2632C34.8797 13.2632 33.7677 13.3363 32.7143 13.4387C31.5978 13.5296 30.4914 13.7181 29.4077 14.002C29.1224 14.0752 28.8737 14.163 28.6176 14.2434L27.8422 14.4995C27.3374 14.6677 26.8254 14.8506 26.3279 15.0335C24.3161 15.765 22.341 16.5624 20.3731 17.3745C18.4052 18.1865 16.4593 19.0424 14.5207 19.9202L11.0166 21.5077L14.8133 21.2663L18.771 21.0176C20.0951 20.9444 21.4192 20.8493 22.736 20.7469H22.8457H22.9043L24.3161 20.0153L25.7207 19.2326C26.6644 18.7132 27.5935 18.1865 28.5225 17.6451C27.5203 18.0255 26.5181 18.4206 25.5305 18.8229L24.0674 19.4301L22.6775 20.008C21.3753 20.008 20.0732 19.9641 18.771 19.9641H18.5808L21.0315 19.0497C23.014 18.3182 24.9965 17.5866 26.9863 16.9136L28.4494 16.4234C28.6981 16.3357 28.9395 16.2625 29.1809 16.1893C29.4223 16.1162 29.6857 16.0284 29.9125 15.9772C30.1393 15.926 30.388 15.8675 30.644 15.8163C30.9001 15.765 31.1342 15.7285 31.3756 15.6992C31.8803 15.6187 32.3851 15.5675 32.8972 15.5163C34.9529 15.3407 37.0451 15.3115 39.1446 15.3334C41.2442 15.3554 43.3437 15.4505 45.4359 15.5968C46.4747 15.6773 47.5208 15.765 48.545 15.8894C49.0392 15.9399 49.5285 16.0304 50.0081 16.1601L50.3592 16.2771L50.7177 16.4088L51.4493 16.7014C53.3952 17.4769 55.3265 18.362 57.3016 19.196C58.2746 19.6203 59.2476 20.0446 60.2278 20.4543C61.2081 20.8639 62.1811 21.2882 63.154 21.6979C62.1811 21.0541 61.2886 20.4835 60.3741 19.9641Z" fill="#F9F9FA"/>
<path d="M47.6528 28.5304C47.5411 28.4609 47.4205 28.4068 47.2944 28.3695L46.753 28.2158C46.3726 28.1281 45.9703 28.0476 45.5679 27.9818C44.7632 27.8428 43.9439 27.7403 43.1172 27.6452C41.4639 27.4624 39.8033 27.3307 38.1354 27.2136C34.7995 26.9942 31.449 26.8552 28.1058 26.782C26.4306 26.782 24.7554 26.7454 23.0801 26.7308L18.0471 26.6942L7.98828 26.6211L28.1058 26.0431C31.4612 25.97 34.8215 25.97 38.1866 26.0431C39.8691 26.087 41.5517 26.1529 43.2416 26.2699C44.0902 26.3285 44.9315 26.4016 45.7874 26.5113C46.2117 26.5699 46.6433 26.6284 47.0822 26.7162C47.3017 26.7601 47.5211 26.8113 47.7552 26.8771C48.0344 26.9513 48.3008 27.0672 48.5453 27.2209H48.5965C48.774 27.3335 48.8996 27.5119 48.9456 27.717C48.9915 27.9221 48.9541 28.1371 48.8416 28.3146C48.729 28.4921 48.5506 28.6177 48.3455 28.6636C48.1404 28.7096 47.9254 28.6722 47.7479 28.5597L47.6528 28.5304Z" fill="#F9F9FA"/>
<path d="M93.1697 30.191C93.1697 30.191 94.9328 33.4683 94.684 33.9731C94.4353 34.4778 86.8857 28.7864 86.8857 28.7864L93.1697 30.191Z" fill="#F9F9FA"/>
<path d="M4.85687 26.6208H0.826042C0.684483 26.9857 0.634038 27.3796 0.679077 27.7684C0.724117 28.1571 0.863283 28.5291 1.08451 28.8519C1.30575 29.1747 1.60237 29.4388 1.94868 29.6211C2.29498 29.8034 2.68053 29.8985 3.07189 29.8982H3.23283L4.85687 26.6208Z" fill="#F9F9FA"/>
<path d="M8.47837 38.7721C8.0182 38.5978 7.54319 38.4656 7.05917 38.377H7.00064H6.92017H6.81044C6.40305 38.3016 6.00009 38.2039 5.60339 38.0844C5.33198 38.008 5.08171 37.8703 4.87184 37.6821C4.7781 37.5861 4.70608 37.4711 4.66064 37.3449C4.61521 37.2187 4.59742 37.0842 4.60848 36.9505C4.59561 36.7192 4.63954 36.4883 4.73645 36.2779C4.83337 36.0675 4.98031 35.884 5.16446 35.7435C5.64503 35.4281 6.21475 35.2766 6.78849 35.3118C7.1482 35.3116 7.50503 35.376 7.84192 35.502C8.23439 35.6506 8.60575 35.8498 8.94656 36.0946L9.03435 36.1531L9.69274 35.2826L9.6269 35.1143C9.34118 34.9094 9.03758 34.7307 8.71978 34.5803C8.41662 34.4439 8.10045 34.3385 7.77608 34.2657C7.46186 34.1928 7.14034 34.156 6.81776 34.156C6.21665 34.1419 5.61906 34.2515 5.06204 34.4779C4.59589 34.6645 4.19953 34.9918 3.92814 35.4143C3.66277 35.8553 3.5283 36.3628 3.54042 36.8774C3.51297 37.3661 3.66083 37.8486 3.9574 38.238C4.22745 38.5555 4.57904 38.7933 4.97426 38.9257C5.46986 39.0865 5.97579 39.2136 6.48856 39.3061H6.66413H6.72266V39.1964V39.3134C7.09406 39.3822 7.4606 39.4751 7.81998 39.5914C8.07512 39.676 8.30431 39.8246 8.48569 40.023C8.65252 40.2293 8.73835 40.4895 8.7271 40.7546C8.73761 40.9854 8.68944 41.2152 8.5871 41.4225C8.48476 41.6297 8.33158 41.8077 8.14186 41.9397C7.62929 42.2563 7.03147 42.4071 6.43004 42.3713C5.94471 42.3746 5.46234 42.2954 5.00352 42.1372C4.56239 41.9684 4.1558 41.7205 3.80378 41.4056L3.71599 41.3252L3.04297 42.203L3.12344 42.2762C3.41788 42.5217 3.73941 42.7328 4.08177 42.9053C4.433 43.0752 4.80408 43.2005 5.1864 43.2784L5.76433 43.4028H6.43004C7.04947 43.4167 7.6657 43.3099 8.24428 43.0882C8.72219 42.9054 9.13305 42.5814 9.42207 42.1591C9.69722 41.7216 9.83719 41.2127 9.82442 40.696C9.82518 40.2708 9.69771 39.8553 9.45865 39.5036C9.202 39.1777 8.86384 38.9253 8.47837 38.7721V38.7721Z" fill="#F9F9FA"/>
<path d="M21.8873 34.2732H20.7754V43.4249H21.8873V34.2732Z" fill="#F9F9FA"/>
<path d="M34.4704 34.2729H33.3584V43.4246H39.3205V42.3785H34.4704V34.2729Z" fill="#F9F9FA"/>
<path d="M51.1715 34.2729H50.0596V43.4246H51.1715V34.2729Z" fill="#F9F9FA"/>
<path d="M66.549 40.5572L63.7545 34.2732H62.6426V43.4249H63.7472V36.8775L66.1613 42.1812H66.9368L69.3436 36.7751V43.4249H70.4555V34.2732H69.3436L66.549 40.5572Z" fill="#F9F9FA"/>
<path d="M87.6835 35.7508C87.4367 35.2569 87.0466 34.8489 86.5643 34.5803C86.0181 34.3155 85.4191 34.178 84.8122 34.178C84.2053 34.178 83.6063 34.3155 83.0601 34.5803C82.5763 34.8471 82.1858 35.2555 81.9409 35.7508C81.6715 36.3244 81.5412 36.9535 81.5605 37.587V40.1108C81.542 40.7442 81.6723 41.3731 81.9409 41.947C82.1858 42.4422 82.5763 42.8507 83.0601 43.1175C83.6063 43.3822 84.2053 43.5198 84.8122 43.5198C85.4191 43.5198 86.0181 43.3822 86.5643 43.1175C87.0466 42.8488 87.4367 42.4409 87.6835 41.947C87.9488 41.372 88.079 40.7439 88.0639 40.1108V37.587C88.0797 36.9538 87.9496 36.3255 87.6835 35.7508V35.7508ZM84.8085 42.4664C84.4038 42.4793 84.0028 42.3859 83.6454 42.1957C83.3276 42.0185 83.0722 41.7478 82.9138 41.4203C82.7359 41.0228 82.6508 40.59 82.6651 40.1547V37.5431C82.6508 37.1078 82.7359 36.675 82.9138 36.2775C83.0722 35.95 83.3276 35.6792 83.6454 35.502C84.0072 35.3239 84.4052 35.2313 84.8085 35.2313C85.2119 35.2313 85.6098 35.3239 85.9717 35.502C86.2909 35.6773 86.5469 35.9486 86.7032 36.2775C86.8837 36.6744 86.9713 37.1072 86.9593 37.5431V40.1547C86.9692 40.5904 86.8818 41.0227 86.7032 41.4203C86.5469 41.7492 86.2909 42.0205 85.9717 42.1957C85.6146 42.3869 85.2133 42.4803 84.8085 42.4664V42.4664Z" fill="#F9F9FA"/>
<path d="M71.2088 12.0267L73.2352 7.92268L70.0456 10.8489L69.3141 10.1173C68.9191 9.64914 68.5167 9.19558 68.0924 8.75665L68.524 7.06677L67.6827 8.32504C66.2286 6.86228 64.6194 5.56222 62.8838 4.44783C58.9182 1.89864 54.3763 0.385378 49.6742 0.0466837C44.9721 -0.29201 40.2602 0.554697 35.9701 2.50923C31.7501 4.45434 28.0779 7.41518 25.2822 11.1269C28.1807 7.54823 31.9206 4.74333 36.1677 2.96279C40.3857 1.22018 44.9736 0.563695 49.5111 1.05345C55.9714 1.73407 61.9642 4.73954 66.3733 9.51014L64.9614 10.2417L66.7683 9.89786C67.1195 10.2929 67.456 10.6953 67.7852 11.1049L68.1729 11.8365L63.7836 13.1679L69.0068 13.4093C69.3141 14.0165 69.5775 14.5359 69.7969 14.909C70.6675 16.4452 72.8328 16.8403 72.8328 16.8403C72.9589 15.6771 72.7851 14.501 72.3281 13.4239C72.0136 12.9141 71.6377 12.4448 71.2088 12.0267V12.0267Z" fill="#26B5C6"/>
</g>
<defs>
<clipPath id="clip0_1_572">
<rect width="94.7062" height="56" fill="white"/>
</clipPath>
</defs>
</svg>
