<svg width="20" height="18" viewBox="0 0 20 18" fill="none" xmlns="http://www.w3.org/2000/svg">
<path fill-rule="evenodd" clip-rule="evenodd" d="M10.0003 15.4553L5.31105 17.8706C4.74981 18.1596 4.05564 17.9482 3.76058 17.3984C3.64309 17.1794 3.60254 16.9287 3.64523 16.6848L4.54079 11.5693L0.747103 7.94643C0.29305 7.51282 0.283759 6.8007 0.726351 6.35587C0.902594 6.17873 1.13352 6.06346 1.38339 6.02788L6.62615 5.28154L8.97078 0.627246C9.2514 0.0701908 9.93983 -0.158522 10.5084 0.116401C10.7348 0.225877 10.9181 0.405424 11.0299 0.627246L13.3745 5.28154L18.6172 6.02788C19.2447 6.11721 19.6795 6.68798 19.5883 7.30272C19.552 7.54752 19.4343 7.77376 19.2535 7.94643L15.4598 11.5693L16.3554 16.6848C16.4626 17.2971 16.0429 17.8786 15.4179 17.9836C15.1691 18.0254 14.9131 17.9857 14.6896 17.8706L10.0003 15.4553Z" fill="#26B5C6"/>
</svg>
