<svg width="24" height="20" viewBox="0 0 24 20" fill="none" xmlns="http://www.w3.org/2000/svg">
<path d="M24 2.23974C23.1 2.63783 22.15 2.88664 21.15 3.03592C22.15 2.43879 22.95 1.49332 23.3 0.348817C22.35 0.89619 21.3 1.29428 20.15 1.54309C19.25 0.597623 17.95 0.000488281 16.55 0.000488281C13.85 0.000488281 11.65 2.18998 11.65 4.87709C11.65 5.27518 11.7 5.62351 11.8 5.97183C7.75 5.77279 4.1 3.8321 1.65 0.846429C1.25 1.59285 1 2.38903 1 3.28473C1 4.97661 1.85 6.46945 3.2 7.36515C2.4 7.31539 1.65 7.11634 0.95 6.76801V6.81777C0.95 9.20631 2.65 11.1968 4.9 11.6446C4.5 11.7441 4.05 11.7939 3.6 11.7939C3.3 11.7939 2.95 11.7441 2.65 11.6944C3.3 13.6351 5.1 15.0781 7.25 15.0781C5.55 16.3719 3.45 17.1681 1.15 17.1681C0.75 17.1681 0.35 17.1681 0 17.1183C2.2 18.5117 4.75 19.3078 7.55 19.3078C16.6 19.3078 21.55 11.8437 21.55 5.3747C21.55 5.17565 21.55 4.92685 21.55 4.7278C22.5 4.08091 23.35 3.23497 24 2.23974Z" fill="#081F29"/>
</svg>
